<mxfile host="app.diagrams.net" modified="2024-05-16T09:30:32.269Z" agent="Mozilla/5.0 (Windows NT 10.0; Win64; x64) AppleWebKit/537.36 (KHTML, like Gecko) Chrome/124.0.0.0 Safari/537.36" etag="_wUx42659DuBPMNGCfSa" version="24.3.1" type="device">
  <diagram id="C5RBs43oDa-KdzZeNtuy" name="Page-1">
    <mxGraphModel dx="2514" dy="1446" grid="1" gridSize="10" guides="1" tooltips="1" connect="1" arrows="1" fold="1" page="1" pageScale="1" pageWidth="827" pageHeight="1169" math="0" shadow="0">
      <root>
        <mxCell id="WIyWlLk6GJQsqaUBKTNV-0" />
        <mxCell id="WIyWlLk6GJQsqaUBKTNV-1" parent="WIyWlLk6GJQsqaUBKTNV-0" />
        <mxCell id="8H61EBSdPwZZ25Gs98o3-3" style="edgeStyle=orthogonalEdgeStyle;rounded=0;orthogonalLoop=1;jettySize=auto;html=1;entryX=0.5;entryY=0;entryDx=0;entryDy=0;" edge="1" parent="WIyWlLk6GJQsqaUBKTNV-1" source="8H61EBSdPwZZ25Gs98o3-0" target="8H61EBSdPwZZ25Gs98o3-2">
          <mxGeometry relative="1" as="geometry" />
        </mxCell>
        <mxCell id="8H61EBSdPwZZ25Gs98o3-0" value="MULAI" style="ellipse;whiteSpace=wrap;html=1;" vertex="1" parent="WIyWlLk6GJQsqaUBKTNV-1">
          <mxGeometry x="186" y="90" width="120" height="80" as="geometry" />
        </mxCell>
        <mxCell id="8H61EBSdPwZZ25Gs98o3-6" style="edgeStyle=orthogonalEdgeStyle;rounded=0;orthogonalLoop=1;jettySize=auto;html=1;entryX=0.5;entryY=0;entryDx=0;entryDy=0;" edge="1" parent="WIyWlLk6GJQsqaUBKTNV-1" source="8H61EBSdPwZZ25Gs98o3-2" target="8H61EBSdPwZZ25Gs98o3-5">
          <mxGeometry relative="1" as="geometry" />
        </mxCell>
        <mxCell id="8H61EBSdPwZZ25Gs98o3-2" value="a = 1, j = 0, N" style="rounded=0;whiteSpace=wrap;html=1;" vertex="1" parent="WIyWlLk6GJQsqaUBKTNV-1">
          <mxGeometry x="186" y="230" width="120" height="60" as="geometry" />
        </mxCell>
        <mxCell id="8H61EBSdPwZZ25Gs98o3-8" style="edgeStyle=orthogonalEdgeStyle;rounded=0;orthogonalLoop=1;jettySize=auto;html=1;" edge="1" parent="WIyWlLk6GJQsqaUBKTNV-1" source="8H61EBSdPwZZ25Gs98o3-5" target="8H61EBSdPwZZ25Gs98o3-7">
          <mxGeometry relative="1" as="geometry" />
        </mxCell>
        <mxCell id="8H61EBSdPwZZ25Gs98o3-5" value="N" style="shape=parallelogram;perimeter=parallelogramPerimeter;whiteSpace=wrap;html=1;fixedSize=1;" vertex="1" parent="WIyWlLk6GJQsqaUBKTNV-1">
          <mxGeometry x="186" y="360" width="120" height="60" as="geometry" />
        </mxCell>
        <mxCell id="8H61EBSdPwZZ25Gs98o3-21" style="edgeStyle=orthogonalEdgeStyle;rounded=0;orthogonalLoop=1;jettySize=auto;html=1;entryX=0;entryY=0.5;entryDx=0;entryDy=0;" edge="1" parent="WIyWlLk6GJQsqaUBKTNV-1" source="8H61EBSdPwZZ25Gs98o3-7" target="8H61EBSdPwZZ25Gs98o3-20">
          <mxGeometry relative="1" as="geometry" />
        </mxCell>
        <mxCell id="8H61EBSdPwZZ25Gs98o3-38" value="TIDAK" style="edgeLabel;html=1;align=center;verticalAlign=middle;resizable=0;points=[];" vertex="1" connectable="0" parent="8H61EBSdPwZZ25Gs98o3-21">
          <mxGeometry x="0.1695" y="-1" relative="1" as="geometry">
            <mxPoint x="-39" y="-11" as="offset" />
          </mxGeometry>
        </mxCell>
        <mxCell id="8H61EBSdPwZZ25Gs98o3-25" style="edgeStyle=orthogonalEdgeStyle;rounded=0;orthogonalLoop=1;jettySize=auto;html=1;entryX=0.5;entryY=0;entryDx=0;entryDy=0;" edge="1" parent="WIyWlLk6GJQsqaUBKTNV-1" source="8H61EBSdPwZZ25Gs98o3-7" target="8H61EBSdPwZZ25Gs98o3-24">
          <mxGeometry relative="1" as="geometry" />
        </mxCell>
        <mxCell id="8H61EBSdPwZZ25Gs98o3-37" value="YA" style="edgeLabel;html=1;align=center;verticalAlign=middle;resizable=0;points=[];" vertex="1" connectable="0" parent="8H61EBSdPwZZ25Gs98o3-25">
          <mxGeometry x="-0.3676" y="-3" relative="1" as="geometry">
            <mxPoint x="13" as="offset" />
          </mxGeometry>
        </mxCell>
        <mxCell id="8H61EBSdPwZZ25Gs98o3-7" value="N &amp;lt; a ?" style="rhombus;whiteSpace=wrap;html=1;" vertex="1" parent="WIyWlLk6GJQsqaUBKTNV-1">
          <mxGeometry x="206" y="460" width="80" height="80" as="geometry" />
        </mxCell>
        <mxCell id="8H61EBSdPwZZ25Gs98o3-19" style="edgeStyle=orthogonalEdgeStyle;rounded=0;orthogonalLoop=1;jettySize=auto;html=1;" edge="1" parent="WIyWlLk6GJQsqaUBKTNV-1" source="8H61EBSdPwZZ25Gs98o3-11" target="8H61EBSdPwZZ25Gs98o3-12">
          <mxGeometry relative="1" as="geometry" />
        </mxCell>
        <mxCell id="8H61EBSdPwZZ25Gs98o3-11" value="j = j + 1" style="rounded=0;whiteSpace=wrap;html=1;" vertex="1" parent="WIyWlLk6GJQsqaUBKTNV-1">
          <mxGeometry x="546" y="590" width="96" height="30" as="geometry" />
        </mxCell>
        <mxCell id="8H61EBSdPwZZ25Gs98o3-16" style="rounded=0;orthogonalLoop=1;jettySize=auto;html=1;elbow=vertical;edgeStyle=orthogonalEdgeStyle;" edge="1" parent="WIyWlLk6GJQsqaUBKTNV-1" source="8H61EBSdPwZZ25Gs98o3-12">
          <mxGeometry relative="1" as="geometry">
            <mxPoint x="246" y="440" as="targetPoint" />
            <Array as="points">
              <mxPoint x="594" y="440" />
            </Array>
          </mxGeometry>
        </mxCell>
        <mxCell id="8H61EBSdPwZZ25Gs98o3-12" value="a = a + 1" style="rounded=0;whiteSpace=wrap;html=1;" vertex="1" parent="WIyWlLk6GJQsqaUBKTNV-1">
          <mxGeometry x="546" y="485" width="96" height="30" as="geometry" />
        </mxCell>
        <mxCell id="8H61EBSdPwZZ25Gs98o3-22" style="edgeStyle=orthogonalEdgeStyle;rounded=0;orthogonalLoop=1;jettySize=auto;html=1;entryX=0;entryY=0.5;entryDx=0;entryDy=0;exitX=0.5;exitY=1;exitDx=0;exitDy=0;" edge="1" parent="WIyWlLk6GJQsqaUBKTNV-1" source="8H61EBSdPwZZ25Gs98o3-20" target="8H61EBSdPwZZ25Gs98o3-11">
          <mxGeometry relative="1" as="geometry" />
        </mxCell>
        <mxCell id="8H61EBSdPwZZ25Gs98o3-40" value="YA" style="edgeLabel;html=1;align=center;verticalAlign=middle;resizable=0;points=[];" vertex="1" connectable="0" parent="8H61EBSdPwZZ25Gs98o3-22">
          <mxGeometry x="-0.6753" y="4" relative="1" as="geometry">
            <mxPoint x="12" y="-33" as="offset" />
          </mxGeometry>
        </mxCell>
        <mxCell id="8H61EBSdPwZZ25Gs98o3-23" style="edgeStyle=orthogonalEdgeStyle;rounded=0;orthogonalLoop=1;jettySize=auto;html=1;entryX=0;entryY=0.5;entryDx=0;entryDy=0;" edge="1" parent="WIyWlLk6GJQsqaUBKTNV-1" source="8H61EBSdPwZZ25Gs98o3-20" target="8H61EBSdPwZZ25Gs98o3-12">
          <mxGeometry relative="1" as="geometry" />
        </mxCell>
        <mxCell id="8H61EBSdPwZZ25Gs98o3-39" value="TIDAK" style="edgeLabel;html=1;align=center;verticalAlign=middle;resizable=0;points=[];" vertex="1" connectable="0" parent="8H61EBSdPwZZ25Gs98o3-23">
          <mxGeometry x="-0.5012" y="1" relative="1" as="geometry">
            <mxPoint x="-8" y="-9" as="offset" />
          </mxGeometry>
        </mxCell>
        <mxCell id="8H61EBSdPwZZ25Gs98o3-20" value="N % a = 0?" style="rhombus;whiteSpace=wrap;html=1;" vertex="1" parent="WIyWlLk6GJQsqaUBKTNV-1">
          <mxGeometry x="370" y="460" width="80" height="80" as="geometry" />
        </mxCell>
        <mxCell id="8H61EBSdPwZZ25Gs98o3-31" style="edgeStyle=orthogonalEdgeStyle;rounded=0;orthogonalLoop=1;jettySize=auto;html=1;" edge="1" parent="WIyWlLk6GJQsqaUBKTNV-1" source="8H61EBSdPwZZ25Gs98o3-24">
          <mxGeometry relative="1" as="geometry">
            <mxPoint x="246" y="750" as="targetPoint" />
          </mxGeometry>
        </mxCell>
        <mxCell id="8H61EBSdPwZZ25Gs98o3-35" value="YA" style="edgeLabel;html=1;align=center;verticalAlign=middle;resizable=0;points=[];" vertex="1" connectable="0" parent="8H61EBSdPwZZ25Gs98o3-31">
          <mxGeometry x="-0.1475" y="-4" relative="1" as="geometry">
            <mxPoint x="14" as="offset" />
          </mxGeometry>
        </mxCell>
        <mxCell id="8H61EBSdPwZZ25Gs98o3-33" style="edgeStyle=orthogonalEdgeStyle;rounded=0;orthogonalLoop=1;jettySize=auto;html=1;" edge="1" parent="WIyWlLk6GJQsqaUBKTNV-1" source="8H61EBSdPwZZ25Gs98o3-24" target="8H61EBSdPwZZ25Gs98o3-27">
          <mxGeometry relative="1" as="geometry" />
        </mxCell>
        <mxCell id="8H61EBSdPwZZ25Gs98o3-36" value="TIDAK" style="edgeLabel;html=1;align=center;verticalAlign=middle;resizable=0;points=[];" vertex="1" connectable="0" parent="8H61EBSdPwZZ25Gs98o3-33">
          <mxGeometry x="-0.4849" y="-3" relative="1" as="geometry">
            <mxPoint x="-32" y="-18" as="offset" />
          </mxGeometry>
        </mxCell>
        <mxCell id="8H61EBSdPwZZ25Gs98o3-24" value="j &amp;lt;= 4 ?" style="rhombus;whiteSpace=wrap;html=1;" vertex="1" parent="WIyWlLk6GJQsqaUBKTNV-1">
          <mxGeometry x="206" y="580" width="80" height="80" as="geometry" />
        </mxCell>
        <mxCell id="8H61EBSdPwZZ25Gs98o3-34" style="edgeStyle=orthogonalEdgeStyle;rounded=0;orthogonalLoop=1;jettySize=auto;html=1;exitX=0.5;exitY=1;exitDx=0;exitDy=0;" edge="1" parent="WIyWlLk6GJQsqaUBKTNV-1" source="8H61EBSdPwZZ25Gs98o3-27">
          <mxGeometry relative="1" as="geometry">
            <mxPoint x="246" y="850" as="targetPoint" />
            <Array as="points">
              <mxPoint x="426" y="850" />
            </Array>
          </mxGeometry>
        </mxCell>
        <mxCell id="8H61EBSdPwZZ25Gs98o3-27" value="Tidak" style="shape=parallelogram;perimeter=parallelogramPerimeter;whiteSpace=wrap;html=1;fixedSize=1;" vertex="1" parent="WIyWlLk6GJQsqaUBKTNV-1">
          <mxGeometry x="366" y="680" width="120" height="60" as="geometry" />
        </mxCell>
        <mxCell id="8H61EBSdPwZZ25Gs98o3-32" style="edgeStyle=orthogonalEdgeStyle;rounded=0;orthogonalLoop=1;jettySize=auto;html=1;" edge="1" parent="WIyWlLk6GJQsqaUBKTNV-1" source="8H61EBSdPwZZ25Gs98o3-28" target="8H61EBSdPwZZ25Gs98o3-30">
          <mxGeometry relative="1" as="geometry" />
        </mxCell>
        <mxCell id="8H61EBSdPwZZ25Gs98o3-28" value="Ya" style="shape=parallelogram;perimeter=parallelogramPerimeter;whiteSpace=wrap;html=1;fixedSize=1;" vertex="1" parent="WIyWlLk6GJQsqaUBKTNV-1">
          <mxGeometry x="186" y="750" width="120" height="60" as="geometry" />
        </mxCell>
        <mxCell id="8H61EBSdPwZZ25Gs98o3-30" value="SLESAI" style="ellipse;whiteSpace=wrap;html=1;" vertex="1" parent="WIyWlLk6GJQsqaUBKTNV-1">
          <mxGeometry x="186" y="880" width="120" height="80" as="geometry" />
        </mxCell>
      </root>
    </mxGraphModel>
  </diagram>
</mxfile>
